<svg xmlns="http://www.w3.org/2000/svg" viewBox="0 0 64 64" role="img" aria-label="Agent Arbiter mark">
  <path
    d="M28 15 16 22v12l8 7M36 15l12 7v12l-8 7M24 41l8 11 8-11"
    fill="none"
    stroke="#486fba"
    stroke-width="4.2"
    stroke-linecap="round"
    stroke-linejoin="round"
  />
  <path
    d="M36 15l12 7v12"
    fill="none"
    stroke="#9be3f5"
    stroke-width="3.8"
    stroke-linecap="round"
    stroke-linejoin="round"
  />
  <path d="M30 23h4v27h-4z" fill="#718493" />
  <path d="M26 49h12a1.5 1.5 0 0 1 1.5 1.5v1H24.5v-1A1.5 1.5 0 0 1 26 49Z" fill="#718493" />
  <path d="M18 34h28a1.5 1.5 0 0 1 1.5 1.5V37h-31v-1.5A1.5 1.5 0 0 1 18 34Z" fill="#718493" />
  <path d="M22 27 16 39h12L22 27ZM42 27l-6 12h12L42 27Z" fill="#071323" stroke="#718493" stroke-width="2" stroke-linejoin="round" />
  <path d="M16 39h12c-.9 2.4-3.2 4-6 4s-5.1-1.6-6-4ZM36 39h12c-.9 2.4-3.2 4-6 4s-5.1-1.6-6-4Z" fill="#435363" />
  <circle cx="32" cy="10" r="3.1" fill="#9be3f5" />
  <circle cx="32" cy="10" r="1.45" fill="#071323" />
  <circle cx="32" cy="27" r="4.2" fill="#62b3cc" />
  <circle cx="32" cy="27" r="1.9" fill="#071323" />
  <circle cx="15" cy="32" r="3.1" fill="#62b3cc" />
  <circle cx="15" cy="32" r="1.45" fill="#071323" />
  <circle cx="49" cy="32" r="3.1" fill="#62b3cc" />
  <circle cx="49" cy="32" r="1.45" fill="#071323" />
  <circle cx="24" cy="47" r="3.1" fill="#4362c0" />
  <circle cx="24" cy="47" r="1.45" fill="#071323" />
  <circle cx="40" cy="47" r="3.1" fill="#4362c0" />
  <circle cx="40" cy="47" r="1.45" fill="#071323" />
</svg>
